<?xml version="1.0" encoding="UTF-8" standalone="no"?>
<svg width="1463px" height="650px" viewBox="0 0 1463 650" version="1.1" xmlns="http://www.w3.org/2000/svg" xmlns:xlink="http://www.w3.org/1999/xlink">
    <!-- Generator: Sketch 40.3 (33839) - http://www.bohemiancoding.com/sketch -->
    <title>home-overlay</title>
    <desc>Created with Sketch.</desc>
    <defs>
        <polygon id="path-1" points="0 0 1500 0 1500 650 412.126857 650 0 650"></polygon>
    </defs>
    <g id="Page-2" stroke="none" stroke-width="1" fill="none" fill-rule="evenodd">
        <g id="home-overlay" transform="translate(-37.000000, 0.000000)">
            <mask id="mask-2" fill="white">
                <use xlink:href="#path-1"></use>
            </mask>
            <g id="Mask"></g>
            <g mask="url(#mask-2)">
                <g transform="translate(-299.000000, -128.000000)">
                    <polygon id="Path-907" fill="#F67F12" points="770 593.5 1799 568 1799 613 775 592.851562"></polygon>
                    <g id="Page-1" stroke-width="1" fill="none" transform="translate(457.768131, 453.046290) rotate(129.000000) translate(-457.768131, -453.046290) translate(149.768131, 114.046290)">
                        <polygon id="Fill-1" fill="#F67F12" points="222 7 311.425715 153.499759 396.893311 127.788819 519.903854 277.55788 615.001673 174.37894 449.851823 74.7374458 327.536138 103.202024"></polygon>
                        <polygon id="Fill-2" fill="#F67F12" points="234.719947 207.92241 323.862572 203.853831 406.741176 379.132723 524.074467 302.278361 388.124115 165.318361 262.581199 163.070072 223 8"></polygon>
                        <polygon id="Fill-3" fill="#F67F12" points="223 5.68255422 351.147349 84.852241 424.180712 40.0379034 590.780883 121.949012 585.574402 23.4784431 424.18071 0.556521166 339.022276 42.5551832"></polygon>
                        <polygon id="Fill-4" fill="#F67F12" points="0.221049971 513.092957 125.642444 677.807495 222.879363 9"></polygon>
                    </g>
                </g>
            </g>
        </g>
    </g>
</svg>